<?xml version="1.0" encoding="utf-8"?>
<!-- Generator: Adobe Illustrator 17.0.2, SVG Export Plug-In . SVG Version: 6.00 Build 0)  -->
<!DOCTYPE svg PUBLIC "-//W3C//DTD SVG 1.1//EN" "http://www.w3.org/Graphics/SVG/1.1/DTD/svg11.dtd">
<svg version="1.1" id="Layer_1" xmlns="http://www.w3.org/2000/svg" xmlns:xlink="http://www.w3.org/1999/xlink" x="0px" y="0px"
	 width="601.672px" height="369.635px" viewBox="0 0 601.672 369.635" enable-background="new 0 0 601.672 369.635"
	 xml:space="preserve">
<path fill="#ffffff" d="M347.297,368.006c-1.875-0.544-2.965-0.914-4.341-1.43c-7.566-2.837-12.83-8.266-16.378-15.268
	c-1.238-2.442-2.014-2.337-4.371-1.657c-24.719,7.138-47.354-5.276-48.355-33.29c-0.779-21.798,6.091-42.142,10.62-62.959
	c3.728-17.137,9.793-33.837,9.567-51.724c-0.043-3.387-0.309-6.589-3.813-7.894c-3.123-1.163-5.326,1.112-7.322,3.169
	c-9.545,9.834-13.43,22.548-16.751,35.201c-4.032,15.365-6.796,31.063-10.112,46.616c-0.443,2.078-0.474,4.829-3.488,4.518
	c-3.739-0.386-1.901-3.281-1.562-5.063c3.406-17.902,6.977-35.773,10.417-53.669c1.281-6.665,2.364-13.369,3.473-20.065
	c0.188-1.137,0.182-2.347,0.029-3.491c-0.375-2.8-0.551-6.064-3.606-7.164c-2.969-1.07-4.442,1.959-5.883,3.73
	c-6.491,7.979-9.68,17.679-13.69,26.971c-7.004,16.23-7.799,33.858-11.925,50.727c-0.693,2.832,0.25,8.432-4.098,7.62
	c-3.757-0.702-1.58-5.597-1.121-8.639c1.254-8.315,2.72-16.598,4.278-25.948c-5.701,7.116-11.416,12.653-20.189,13.517
	c-1.773,0.175-2.034,2.457-2.855,3.867c-4.124,7.085-8.31,14.143-16.417,17.445c-5.261,2.143-12.11,0.024-15.423-4.688
	c-6.706-9.536-7.445-20.539-6.83-31.532c0.555-9.92,2.694-19.657,5.793-29.196c2.724-8.387,7.533-15.129,14.085-20.783
	c10.36-8.942,23.157-5.422,27.038,7.774c4.115,13.993,1.866,27.978-1.353,41.818c-0.749,3.22-1.988,6.328-3.036,9.475
	c-0.308,0.924-1.126,2.037-0.126,2.684c0.618,0.399,1.895,0.126,2.73-0.21c9.807-3.954,16.062-11.393,18.553-21.358
	c3.252-13.011,5.413-26.292,8.367-39.383c0.612-2.71,0.672-7.8,4.796-6.701c3.659,0.975,0.803,5.266,0.482,7.846
	c-0.77,6.191-2.367,12.28-3.255,18.55c3.387-7.152,6.521-14.345,11.461-20.597c2.764-3.498,5.813-6.115,10.456-5.281
	c4.682,0.841,4.74,5.202,5.431,8.618c1.305,6.45-1.166,12.751-1.512,20.913c3.318-8.933,5.995-16.357,10.907-22.644
	c2.595-3.321,5.325-6.51,9.846-6.959c8.065-0.802,12.369,6.329,10.898,16.386c-3.13,21.397-9.309,42.082-14.041,63.103
	c-3.309,14.7-7.659,29.324-6.649,44.622c0.87,13.175,4.694,25.034,18.094,30.891c7.667,3.351,15.674,3.733,23.853,1.548
	c3.547-0.948,4.438-3.019,3.961-6.241c-2.035-13.751,3.815-24.267,14.09-32.519c2.938-2.36,2.772-3.915,1.132-6.462
	c-2.16-3.353-4.244-6.755-6.375-10.127c-0.995-1.575-1.273-3.234,0.231-4.517c1.741-1.484,3.03-0.085,4.268,1.085
	c3.637,3.44,5.136,8.144,7.143,12.489c1.021,2.211,1.727,2.511,3.972,1.616c12.75-5.084,25.994-4.392,39.31-3.191
	c7.445,0.672,14.814,1.628,22.122,3.195c1.68,0.36,3.685,0.64,4.142-2.162c2.686-16.482,5.464-32.949,7.826-49.54
	c-3.528,6.776-5.517,14.18-9.629,20.67c-1.911,3.017-4.091,5.654-6.644,8.025c-5.805,5.392-12.91,3.468-15.748-4.047
	c-3.048-8.073-1.251-16.48-2.01-25.623c-4.32,9.194-7.664,18.007-13.12,25.732c-3.416,4.836-7.532,8.761-13.656,6.291
	c-5.875-2.37-5.916-7.824-5.234-13.515c2.4-20.051,9.96-38.866,13.73-58.581c0.764-3.998,0.642-7.982,0.385-11.935
	c-0.281-4.326-3.912-6.123-7.924-4.22c-7.324,3.475-10.232,10.705-13.961,17.078c-11.882,20.307-16.678,42.833-20.041,65.771
	c-0.19,1.293-0.459,2.616-0.965,3.81c-0.647,1.525-2.13,1.48-3.451,1.173c-1.862-0.433-0.923-1.749-0.713-2.801
	c1.225-6.121,2.453-12.242,2.899-18.742c-2.618,4.981-5.235,9.961-7.853,14.942c-0.155,0.295-0.28,0.613-0.478,0.877
	c-3.161,4.223-6.138,10.196-12.201,8.407c-5.486-1.618-5.256-7.823-5.204-12.853c0.26-25.343,5.647-49.994,10.277-74.739
	c0.375-2.007,1.392-4.893,3.952-4.325c2.777,0.616,1.816,3.565,1.469,5.569c-3.809,22.023-7.802,44.015-11.485,66.06
	c-0.678,4.059-0.167,8.314-0.257,12.477c-0.042,1.953,0.306,3.81,2.183,4.682c2.024,0.94,3.519-0.565,4.765-1.83
	c6.355-6.454,8.902-15.106,13.081-22.827c9.451-17.46,8.843-37.202,13.042-55.851c0.696-3.091-0.126-8.74,4.311-8.028
	c3.61,0.58,1.112,5.447,0.614,8.336c-1.484,8.611-3.224,17.177-4.554,25.885c3.449-6.336,5.829-13.168,9.642-19.307
	c2.64-4.251,5.398-8.366,8.77-12.064c3.798-4.165,8.665-6.613,13.777-3.987c5.388,2.767,5.836,8.797,5.11,14.126
	c-2.022,14.839-6.96,29.009-10.622,43.475c-1.866,7.371-4.208,14.682-4.136,22.442c0.031,3.359,0.469,6.766,3.912,7.91
	c3.517,1.169,6.003-1.499,7.803-4.163c9.408-13.925,15.302-29.46,20.29-45.36c3.688-11.758,6.89-23.761,15.559-33.084
	c8.74-9.4,16.438-8.172,22.119,3.196c0.271-0.151,0.67-0.242,0.786-0.474c1.194-2.391,0.342-7.447,3.255-6.84
	c2.932,0.612,1.036,5.008,0.561,7.821c-5.685,33.63-11.339,67.265-17.007,100.897c-0.272,1.614-0.246,2.808,1.808,3.378
	c17.718,4.919,35.095,10.975,53.755,12.128c17.32,1.07,28.908-7.788,39.131-19.974c1.721-2.051,3.659-6.32,6.068-4.439
	c3.011,2.35-0.139,5.614-2.231,7.968c-11.469,12.905-25.686,20.009-43.109,19.14c-15.322-0.764-30.112-4.64-44.654-9.393
	c-11.404-3.727-11.472-3.787-15.099,7.474c-5.682,17.639-14.28,33.266-29.75,44.337c-3.55,2.541-7.527,4.083-11.964,5.568
	C363.391,370.881,351.172,369.131,347.297,368.006z M372.193,301.363c-7.327,0.665-15.109,1.298-22.43,4.296
	c-1.702,0.697-3.466,1.045-3.359,4.038c0.491,13.773-3.683,25.728-14.773,34.68c-1.33,1.073-3.208,2.119-1.98,4.485
	c2.292,4.418,4.312,8.91,8.72,11.895c14.857,10.061,36.145,8.065,49.201-4.302c13.257-12.557,19.392-28.684,24.153-45.646
	c0.942-3.355-0.822-4.533-3.586-5.162C396.458,302.99,384.517,302.519,372.193,301.363z M427.938,212.613
	c0-1.164,0.218-2.378-0.036-3.483c-1.368-5.936-0.58-13.813-8.381-15.357c-7.722-1.528-10.555,5.554-13.626,10.908
	c-6.771,11.802-10.289,24.837-12.654,38.059c-1.734,9.694-3.446,19.572-1.309,29.553c0.804,3.757,1.941,7.459,5.938,8.436
	c3.524,0.861,6.214-1.473,8.148-4.393C418.83,256.99,425.177,235.415,427.938,212.613z M212.126,218.011
	c0.496-2.707-0.668-6.953-1.367-11.174c-0.826-4.99-2.578-10.237-7.729-11.995c-5.658-1.931-10.591,0.904-14.87,4.833
	c-4.151,3.811-6.835,8.544-9.107,13.559c-7.946,17.538,3.312,41.215,21.413,45.676c3.468,0.855,4.454-0.371,5.279-3.118
	C209.283,244.002,211.551,232.002,212.126,218.011z M173.173,234.544c-2.806,13.584-3.486,26.22,1.236,38.557
	c2.981,7.789,10.325,10.56,16.933,6.584c5.861-3.527,8.231-9.785,11.175-15.519c0.612-1.193,0.401-2.332-1.191-2.624
	C186.507,258.825,179.136,248.168,173.173,234.544z M327.934,336.43c0,1.325-0.033,2.652,0.011,3.976
	c0.031,0.953-0.23,2.237,0.977,2.503c0.592,0.13,1.509-0.525,2.07-1.049c8.337-7.776,12.421-17.335,11.96-28.779
	c-0.109-2.716-1.186-2.758-2.997-1.175C332.52,318.405,327.861,326.256,327.934,336.43z M422.688,248.478
	c-0.067-0.129-0.134-0.259-0.201-0.388c-0.09,0.112-0.242,0.218-0.253,0.337c-0.011,0.121,0.117,0.256,0.184,0.384
	C422.508,248.701,422.598,248.59,422.688,248.478z"/>
<path fill="#ffffff" d="M0.985,158.349c0.542-2.496,0.688-3.254,1.035-4.755c4.096-17.699,11.313-33.416,28.035-42.797
	c25.004-14.027,52.241-3.367,56.049,26.615c1.099,8.657-1.302,16.357-4.251,24.095c-0.939,2.464-2.619,5.716-5.599,4.064
	c-2.896-1.606-1.214-4.853,0.325-7.032c9.036-12.791,8.064-25.523-0.245-38.096c-9.47-14.331-28.917-17.361-44.688-7.179
	C15.734,123.537,9.192,139.35,6.001,157.014c-2.413,13.357-1.274,26.511,4.015,39.075c7.456,17.71,20.228,23.137,36.657,24.344
	c3.328,0.244,3.992-1.523,4.392-4.517c3.166-23.692,19.988-42.467,42.741-47.832c3.528-0.832,7.251-1.391,10.775-1.441
	c5.373-0.076,8.697-1.764,10.846-6.919c6.473-15.532,12.018-31.3,14.696-47.986c1.061-6.609-2.918-11.775-4.899-17.415
	c-6.939-19.76-13.816-39.491-16.155-60.465c-0.416-3.733,0.201-7.354,1.653-10.724c2.891-6.708,9.67-7.174,14.022-1.026
	c7.087,10.013,8.86,21.719,10.144,33.461c1.755,16.058,1.042,32.084-0.101,48.209c-0.425,5.991,4.124,12.387,6.593,18.522
	c7.312,18.169,15.255,36.095,21.263,56.221c1.192-12.269,1.953-23.303,3.383-34.251c5.1-39.034,12.537-77.446,33.871-111.507
	c9.344-14.918,20.783-27.686,39.147-31.708c0.402-0.088,2.472-0.584,3.098-0.676c2.344-0.344,5.781-0.75,10.969,0.25
	c3.082,0.594,4.482,1.168,6.406,2.127c4.177,2.081,8.395,4.051,11.701,7.487c1.505,1.564,2.654,3.328,0.906,5.219
	c-1.802,1.949-3.236,0.204-4.644-0.961c-7.126-5.893-14.315-10.97-24.522-10.273c-9.387,0.641-16.87,4.625-23.69,10.405
	c-15.729,13.33-24.535,31.121-31.472,49.979c-9.791,26.616-15.19,54.196-17.987,82.384c-1.294,13.038-2.315,26.068-2.957,39.151
	c-0.34,6.924,2.574,13.382,2.12,20.255c-0.158,2.382,0.12,4.961-3.325,4.985c-3.275,0.023-3.889-2.502-3.62-4.852
	c2.994-26.175-10.598-47.672-19.749-70.408c-2.84-7.056-6.015-13.978-9.5-22.034c-2.903,11.351-5.072,21.79-9.063,31.669
	c-2.426,6.006-4.796,12.043-7.494,17.927c-1.203,2.624-0.967,3.939,1.925,4.656c20.7,5.135,31.279,20.369,36.438,39.283
	c8.624,31.618,5.864,62.583-9.721,91.799c-6.769,12.689-16.192,23.132-30.898,26.318c-11.858,2.569-23.514,0.47-34.19-5.535
	c-2.191-1.232-3.349-1.405-5.552,0.199c-7.621,5.544-16.435,7.036-25.632,5.9c-5.372-0.664-9.164-4.044-9.361-9.435
	c-0.185-5.075,3.737-7.859,8.315-9.361c9.507-3.12,17.699,0.356,25.263,5.606c3.11,2.159,4.751,1.706,6.881-1.078
	c7.735-10.114,12.025-21.722,15.181-33.865c0.65-2.5,0.516-3.785-2.831-3.843c-26.772-0.469-40.82-21.061-41.896-44.73
	c-0.241-5.313-0.867-7.463-6.978-7.335c-18.885,0.396-34.928-13.938-40.319-34.569c-0.713-2.728-1.431-4.328-2.139-8.505
	C-0.341,173.036-0.203,163.818,0.985,158.349z M125.692,222.742c2.09-0.422,2.581,3.303,3.214,5.109
	c6.449,18.406-5.06,39.879-24.151,44.495c-4.476,1.082-6.589,3.038-7.586,7.544c-2.645,11.957-6.896,23.422-15.133,32.689
	c-3.378,3.801-2.575,5.252,1.245,7.002c20.623,9.451,41.106,6.946,53.986-13.86c20.531-33.166,23.221-68.713,10.947-105.223
	c-4.804-14.291-14.295-25.418-29.697-30.146c-3.515-1.079-5.158-0.588-7.088,2.725c-13.066,22.429-28.48,42.308-55.751,48.445
	c-1.777,0.4-1.779,1.766-1.75,3.111c0.12,5.468-0.34,10.93,1.047,16.37c5.006,19.632,19.468,31.904,37.204,31.479
	c2.92-0.07,4.315-0.753,4.935-4.045c3.404-18.09,4.825-36.41,6.934-54.655c0.91-7.871,1.56-15.862,4.51-23.355
	c0.501-1.274,1-3.214,3.074-2.345c1.477,0.619,1.46,2.163,1.07,3.491c-7.268,24.793-7.518,50.722-12.34,75.906
	c-0.631,3.295-0.235,4.107,3.41,3.267c17.585-4.052,30.01-25.061,22.38-42.394C125.475,226.81,123.61,223.162,125.692,222.742z
	 M103.989,168.307c-3.05,0.481-6.518,0.841-9.9,1.591c-23.178,5.141-35.966,23.847-39.943,46.366
	c-0.512,2.901,0.75,2.892,3.068,2.358c7.57-1.743,14.317-5.075,20.661-9.521c12.955-9.081,21.966-21.467,29.866-34.844
	c0.906-1.534,2.421-3.314,1.73-4.853C108.586,167.435,106.079,168.307,103.989,168.307z M132.071,97.837
	c1.838-17.802,1.635-35.367-1.736-52.824c-1.453-7.526-3.086-14.976-7.688-21.32c-1.588-2.189-3.701-4.223-6.731-2.991
	c-2.693,1.095-2.85,3.755-3.007,6.323c-0.597,9.741,1.428,19.066,3.978,28.389C120.86,69.94,126.364,83.9,132.071,97.837z
	 M53.589,308.479c-0.003,0-1.815,0.147-3.596,0.465c-4.665,0.833-7.715,3.784-7.818,8.344c-0.107,4.73,3.494,6.754,7.887,7.368
	c8.275,1.156,15.613-1.15,22.338-5.89c1.539-1.085,1.552-2.06,0.042-3.032C67.178,312.343,62.23,308.19,53.589,308.479z"/>
<path fill="#ffffff" d="M600.954,237.443c-2.542,2.958-7.327,10.396-10.742,15.724c-7.886,12.302-14.966,25.128-24.107,36.597
	c-1.28,1.606-0.696,2.955-0.421,4.621c2.284,13.827,2.603,27.486-4.396,40.303c-3.9,7.142-10.297,9.617-14.802,5.297
	c-5.564-5.335-4.181-12.417-2.739-18.811c2.285-10.127,8.123-18.584,15.183-25.964c2.976-3.11,2.77-5.609,1.045-8.726
	c-1.429-2.583-2.129-6.463-6.723-3.522c-1.142,0.731-2.429-0.821-2.834-2.155c-0.361-1.189,0.591-2.13,1.551-2.106
	c7.543,0.192,9.093-6.247,11.132-11.003c7.856-18.32,12.554-37.431,11.855-57.572c-0.145-4.158-0.618-8.285-2.675-12.028
	c-3.122-5.683-8.241-6.126-12.412-1.037c-3.337,4.072-4.942,9.013-6.609,13.876c-6.197,18.077-11.645,36.441-20.016,53.69
	c-2.16,4.45-4.923,8.686-7.911,12.641c-7.339,9.713-20.299,8.159-25.371-2.933c-1.802-3.941-2.568-8.16-3.151-12.487
	c-0.551-4.095-0.922-8.172-0.765-13.685c-3.771,8.307-6.935,15.355-10.169,22.371c-1.983,4.301-4.89,7.953-8.542,10.925
	c-4.326,3.521-8.07,2.388-10.171-2.759c-1.638-4.012-1.048-8.193-1.235-12.328c-0.11-2.423,0.601-4.931-0.954-8.263
	c-3.943,6.349-6.393,12.884-10.902,18.067c-0.107,0.123-0.136,0.312-0.243,0.435c-3.092,3.559-6.526,7.714-11.525,6.479
	c-5.607-1.386-5.818-7.156-6.271-11.91c-0.89-9.344,0.904-18.58,2.282-27.719c2.394-15.872,5.71-31.605,8.641-47.396
	c0.151-0.813,0.196-1.673,0.505-2.423c0.56-1.36,1.084-3.211,2.922-2.902c2.451,0.412,1.683,2.673,1.422,4.088
	c-1.714,9.284-3.744,18.509-5.415,27.8c-2.99,16.62-6.932,33.126-6.487,50.196c0.075,2.858-0.181,6.134,2.991,7.304
	c3.084,1.137,5.315-1.267,7.239-3.37c6.761-7.39,10.526-16.419,14.093-25.605c6.97-17.953,8.254-37.173,12.67-55.69
	c0.49-2.054,0.23-5.102,3.127-4.72c3.396,0.447,1.571,3.237,1.241,5.184c-3.739,22.033-7.603,44.047-11.119,66.116
	c-0.725,4.553-0.158,9.312-0.188,13.976c-0.012,1.851,0.831,3.264,2.455,4.029c1.954,0.921,3.052-0.654,4.247-1.77
	c7.327-6.839,9.906-16.378,14.219-24.941c6.489-12.881,7.871-27.406,13.207-40.634c2.545-6.309,5.276-12.645,10.518-17.359
	c3.505-3.152,7.705-5.62,12.183-3.091c4.5,2.542,4.544,7.123,3.253,11.913c-3.631,13.464-13.027,22.115-24.211,29.169
	c-2.509,1.583-4.004,3.179-4.376,6.041c-1.459,11.22-2.547,22.405,1.431,33.398c3.351,9.262,11.776,11.425,18.697,4.5
	c7.85-7.854,11.769-18.038,15.557-28.159c5.882-15.716,11.316-31.6,17.208-47.313c2.139-5.705,5.145-11.319,12.589-10.716
	c5.954,0.482,11.117,7.347,11.938,15.487c2.6,25.772-3.501,49.345-18.269,70.647c-1.227,1.77,1.199,9.688,3.293,10.444
	c1.672,0.604,1.813-1.006,2.441-1.844c10.385-13.861,19.017-28.833,27.872-43.673c1.858-3.113,4.605-10.406,6.746-8.703
	C601.997,234.273,601.823,236.432,600.954,237.443z M562.944,307.603c0-3.462,0.02-6.295-0.011-9.127
	c-0.011-0.96,0.228-2.252-0.99-2.508c-0.581-0.122-1.578,0.551-2.023,1.139c-7.46,9.867-14.772,19.785-14.036,33.166
	c0.207,3.764,0.053,7.881,4.498,8.957c4.468,1.082,6.27-2.814,8.141-5.951c0.588-0.987,1.043-2.102,1.322-3.217
	C561.743,322.484,563.235,314.912,562.944,307.603z M526.965,199.888c0.038-2.252-0.252-4.425-2.473-5.575
	c-2.435-1.261-4.51,0.022-6.305,1.493c-1.258,1.031-2.335,2.356-3.263,3.707c-6.01,8.75-9.139,18.662-11.45,28.885
	c-0.169,0.747-0.366,1.875,0.021,2.284c0.944,0.996,1.763-0.118,2.484-0.666c6.911-5.246,13.025-11.233,17.164-18.977
	C525.015,207.54,526.926,204.025,526.965,199.888z M466.688,254.619c-0.041-0.143-0.082-0.286-0.123-0.428
	c-0.122,0.036-0.346,0.065-0.349,0.109c-0.009,0.139,0.063,0.284,0.104,0.427C466.443,254.691,466.565,254.655,466.688,254.619z"/>
<path fill="#ffffff" d="M307.982,153.478c6.071-0.043,10.093-3.835,13.846-7.85c8.046-8.609,9.6-19.493,11.293-30.651
	c4.354-28.692,9.078-57.377,20.357-84.408c1.736-4.161,4.108-9.891,9.593-8.141c5.716,1.824,4.155,8.174,3.609,12.709
	c-3.475,28.887-13.716,55.767-26.177,81.707c-8.106,16.874-7.63,34.389-7.345,52.11c0.036,2.228,0.383,5.557,3.227,6.229
	c3.087,0.729,5.162-1.514,6.788-4.056c10.214-15.973,16.899-33.412,21.816-51.633c2.885-10.69,7.017-20.811,15.183-28.749
	c3.853-3.745,8.602-6.058,13.545-3.518c5.443,2.797,4.845,8.199,3.213,13.241c-3.632,11.222-11.465,19.563-21.343,24.72
	c-8.69,4.536-10.307,11.158-10.578,19.274c-0.188,5.635-0.308,11.273,0.899,16.886c1.38,6.415,3.095,12.78,10.3,14.551
	c6.808,1.673,12.63-1.522,17.718-5.892c10.072-8.651,14.465-20.488,18.023-32.719c1.946-6.69,3.464-13.505,5.358-20.211
	c0.399-1.413,0.913-3.851,3.109-3.055c2.48,0.899,0.714,2.782,0.149,4.17c-5.38,13.222-7.423,27.646-14.586,40.23
	c-3.566,6.265-7.438,12.163-13.704,16.175c-13.775,8.82-27.068,3.102-30.323-12.962c-1.216-6.003-0.842-12.066-1.09-19.71
	c-4.816,10.08-7.431,19.416-12.856,27.392c-0.561,0.825-1.132,1.643-1.679,2.477c-2.562,3.905-5.601,7.72-10.775,6.434
	c-5.278-1.312-4.646-6.656-5.56-10.704c-2.03-8.997-0.522-18.073,0.169-28.344c-3.33,3.953-5.818,6.917-8.317,9.872
	c-3.012,3.562-7.001,6.114-11.352,6.793c-4.446,0.693-5.885,3.359-7.648,6.656c-2.651,4.959-5.404,9.845-10.455,13.061
	c-11.305,7.196-22.142,0.874-25.41-14.758c-1.267-6.063-0.795-12.172-1.192-19.348c-3.644,7.764-6.663,14.677-10.1,21.375
	c-3.154,6.149-7.311,11.787-13.918,14.422c-11.919,4.754-22.278-2.968-23.787-17.294c-0.574-5.443-1.567-10.855-0.595-18.198
	c-4.314,9.302-7.812,16.9-11.36,24.475c-1.709,3.649-3.957,6.934-6.997,9.624c-5.35,4.734-10.184,3.005-12.044-3.919
	c-2.104-7.83-0.534-15.61,0.315-23.249c2.011-18.092,4.956-36.082,8.764-53.898c0.654-3.059,0.074-8.719,4.685-7.783
	c4.036,0.819,1.285,5.854,0.786,8.583c-4.106,22.476-8.468,44.908-11.442,67.571c-0.55,4.189-1.264,9.996,2.877,11.693
	c4.472,1.833,6.998-3.573,8.915-6.996c8.392-14.983,14.903-30.735,19.181-47.449c2.636-10.296,5.899-20.521,13.786-28.35
	c3.458-3.433,6.921-6.784,12.604-4.926c5.939,1.941,7.658,7.069,8.237,12.056c1.168,10.052-0.451,19.881-5.128,29.044
	c-1.052,2.062-2.241,4.037-4.916,2.831c-2.726-1.228-1.276-3.442-0.626-5.182c2.21-5.913,4.552-11.777,6.881-17.646
	c1.008-2.541,1.288-5.18,1.015-7.848c-0.514-5.027-1.961-10.116-7.33-11.37c-4.671-1.091-7.797,2.55-10.257,6.36
	c-8.619,13.346-12.191,28.301-13.247,43.824c-0.537,7.895-1.195,15.99,0.953,23.846c1.687,6.168,4.249,12.017,11.431,12.976
	c6.351,0.848,11.41-2.7,14.773-7.636c8.872-13.025,14.555-27.588,18.668-42.71c3.464-12.733,6.225-25.756,17.844-34.082
	c13.704-9.821,25.779-4.277,28.245,12.418c2.297,15.545-0.569,30.355-5.082,45.057c-0.435,1.416-0.674,2.893-1.003,4.342
	c-0.064,0.152-0.128,0.304-0.192,0.456C307.811,153.74,307.896,153.609,307.982,153.478z M309.796,114.974
	c0-3.827,0.217-7.671-0.081-11.475c-0.178-2.274-1.038-4.528-1.808-6.715c-2.949-8.376-10.089-10.377-17.449-5.409
	c-6.239,4.212-9.968,10.116-12.834,16.761c-7.54,17.482,3.213,40.918,20.624,45.275c3.27,0.818,4.967,0.465,6.047-3.243
	C307.652,138.647,310.531,127.103,309.796,114.974z M336.534,117.319c0.404,0.671,0.888,0.687,1.511,0.167
	c3.718-8.851,7.672-17.611,11.104-26.572C356.572,71.532,363.568,52,363.92,30.875c0.036-2.145,1.154-5.242-1.863-6.062
	c-3.159-0.859-3.544,2.483-4.433,4.389c-7.785,16.705-10.785,34.777-14.59,52.587C340.519,93.558,338.677,105.47,336.534,117.319z
	 M271.544,129.017c-0.595,3.639-1.221,5.906-1.296,8.191c-0.345,10.585-1.8,21.354,3.275,31.325
	c4.835,9.499,14.318,10.39,20.698,1.951c2.391-3.162,4.202-6.761,6.297-10.149c1.442-2.332,1.479-3.573-1.854-4.236
	c-6.712-1.336-12.02-5.167-16.814-10.076C277.355,141.418,274.614,135.886,271.544,129.017z M393.929,96.264
	c0.149-6.886-3.127-8.928-8.235-6.213c-2.416,1.284-4.231,3.154-5.74,5.382c-5.76,8.505-8.924,18.079-11.457,27.906
	c-0.191,0.743-0.408,1.844-0.032,2.296c0.921,1.108,1.704-0.096,2.481-0.56c6.51-3.878,11.729-9.176,16.275-15.139
	C390.548,105.573,393.532,100.978,393.929,96.264z"/>
<path fill="#ffffff" d="M203.364,70.3c-1.863-0.407-2.541-1.663-2.27-3.325c0.284-1.744,1.243-3.365,3.207-3.062
	c1.482,0.228,2.674,1.582,2.408,3.297C206.431,69.003,205.184,70.073,203.364,70.3z"/>
<path fill="#ffffff" d="M317.073,177.074c-1.938-0.343-2.106-1.786-2.1-3.312c0.007-1.613,0.515-3.045,2.346-3.121
	c1.801-0.075,2.587,1.192,2.548,2.877C319.826,175.352,318.777,176.487,317.073,177.074z"/>
<path fill="#ffffff" d="M422.688,248.478c-0.09,0.111-0.18,0.223-0.27,0.334c-0.067-0.129-0.195-0.263-0.184-0.384
	c0.011-0.119,0.163-0.226,0.253-0.337C422.554,248.22,422.621,248.349,422.688,248.478z"/>
<path fill="#ffffff" d="M466.688,254.619c-0.122,0.036-0.245,0.072-0.367,0.107c-0.041-0.143-0.114-0.288-0.104-0.427
	c0.003-0.044,0.226-0.073,0.349-0.109C466.606,254.333,466.647,254.476,466.688,254.619z"/>
<path fill="#ffffff" d="M307.982,153.478c-0.085,0.131-0.171,0.262-0.256,0.393c0.064-0.152,0.128-0.304,0.192-0.456
	L307.982,153.478z"/>
</svg>
