<svg height="369.635" viewBox="0 0 601.672 369.635" width="601.672" xmlns="http://www.w3.org/2000/svg"><g fill="#3c3c56"><path d="m347.297 368.006a53.443 53.443 0 0 1 -4.34-1.43c-7.567-2.837-12.83-8.266-16.38-15.268-1.237-2.442-2.013-2.337-4.37-1.657-24.72 7.14-47.354-5.275-48.355-33.29-.78-21.797 6.09-42.14 10.62-62.958 3.728-17.137 9.793-33.837 9.567-51.724-.044-3.387-.31-6.59-3.814-7.894-3.123-1.163-5.326 1.112-7.322 3.17-9.545 9.833-13.43 22.547-16.75 35.2-4.033 15.365-6.797 31.063-10.113 46.616-.442 2.078-.473 4.83-3.487 4.518-3.74-.386-1.9-3.28-1.562-5.063 3.407-17.902 6.978-35.773 10.418-53.67 1.28-6.664 2.364-13.368 3.473-20.064.19-1.136.183-2.346.03-3.49-.375-2.8-.55-6.064-3.606-7.164-2.97-1.07-4.442 1.96-5.883 3.73-6.49 7.98-9.68 17.68-13.69 26.97-7.003 16.23-7.798 33.86-11.924 50.728-.693 2.832.25 8.432-4.098 7.62-3.757-.702-1.58-5.597-1.12-8.64 1.253-8.314 2.72-16.597 4.277-25.947-5.7 7.116-11.416 12.653-20.19 13.517-1.772.175-2.033 2.457-2.854 3.867-4.123 7.086-8.31 14.144-16.416 17.446-5.26 2.143-12.11.024-15.423-4.688-6.705-9.536-7.444-20.54-6.83-31.532.556-9.92 2.695-19.657 5.794-29.196 2.724-8.387 7.533-15.13 14.085-20.783 10.36-8.942 23.156-5.422 27.037 7.774 4.115 13.994 1.866 27.98-1.353 41.82-.75 3.22-1.988 6.327-3.036 9.474-.308.924-1.126 2.037-.126 2.684.618.4 1.895.126 2.73-.21 9.807-3.954 16.062-11.393 18.553-21.358 3.252-13.01 5.413-26.292 8.367-39.383.612-2.71.672-7.8 4.796-6.7 3.66.974.803 5.265.482 7.845-.77 6.19-2.367 12.28-3.255 18.55 3.387-7.152 6.52-14.345 11.46-20.597 2.765-3.498 5.814-6.115 10.457-5.28 4.682.84 4.74 5.2 5.43 8.617 1.306 6.45-1.165 12.75-1.51 20.913 3.317-8.933 5.994-16.357 10.906-22.644 2.595-3.32 5.325-6.51 9.846-6.958 8.065-.802 12.37 6.33 10.898 16.386-3.13 21.397-9.31 42.082-14.04 63.103-3.31 14.7-7.66 29.325-6.65 44.623.87 13.175 4.694 25.034 18.094 30.89 7.667 3.352 15.674 3.734 23.853 1.55 3.546-.95 4.437-3.02 3.96-6.242-2.035-13.75 3.815-24.266 14.09-32.518 2.938-2.36 2.772-3.915 1.132-6.462-2.16-3.353-4.244-6.755-6.375-10.127-.995-1.575-1.273-3.234.23-4.517 1.742-1.484 3.03-.085 4.27 1.085 3.636 3.44 5.135 8.145 7.142 12.49 1.02 2.21 1.726 2.51 3.97 1.616 12.75-5.084 25.995-4.392 39.31-3.19 7.446.67 14.815 1.627 22.123 3.194 1.68.36 3.685.64 4.142-2.162 2.686-16.482 5.464-32.95 7.826-49.54-3.527 6.776-5.516 14.18-9.628 20.67-1.91 3.017-4.09 5.654-6.644 8.025-5.805 5.392-12.91 3.468-15.748-4.047-3.048-8.073-1.25-16.48-2.01-25.623-4.32 9.194-7.664 18.007-13.12 25.732-3.416 4.836-7.532 8.76-13.656 6.29-5.875-2.37-5.916-7.823-5.234-13.514 2.4-20.05 9.96-38.865 13.73-58.58.764-3.998.642-7.982.385-11.935-.28-4.326-3.912-6.123-7.924-4.22-7.323 3.475-10.23 10.705-13.96 17.078-11.882 20.307-16.678 42.833-20.04 65.77-.19 1.294-.46 2.617-.966 3.81-.647 1.526-2.13 1.48-3.45 1.174-1.863-.433-.924-1.75-.714-2.8 1.225-6.122 2.453-12.243 2.9-18.743-2.62 4.98-5.236 9.96-7.854 14.942-.155.295-.28.613-.478.877-3.16 4.223-6.138 10.196-12.2 8.407-5.487-1.618-5.257-7.823-5.205-12.853.26-25.343 5.647-49.994 10.277-74.74.375-2.006 1.392-4.892 3.952-4.324 2.777.616 1.816 3.565 1.47 5.57-3.81 22.022-7.803 44.014-11.486 66.06-.678 4.058-.167 8.313-.257 12.476-.043 1.952.305 3.81 2.182 4.68 2.024.94 3.52-.564 4.765-1.83 6.355-6.453 8.902-15.105 13.08-22.826 9.452-17.46 8.844-37.202 13.043-55.85.696-3.092-.126-8.74 4.31-8.03 3.61.58 1.113 5.448.615 8.337-1.484 8.612-3.224 17.178-4.554 25.886 3.45-6.336 5.83-13.168 9.643-19.307 2.64-4.252 5.398-8.367 8.77-12.065 3.798-4.165 8.665-6.613 13.777-3.987 5.388 2.767 5.836 8.797 5.11 14.126-2.022 14.84-6.96 29.01-10.622 43.475-1.866 7.37-4.208 14.68-4.136 22.44.03 3.36.47 6.767 3.912 7.91 3.517 1.17 6.003-1.498 7.803-4.162 9.408-13.925 15.302-29.46 20.29-45.36 3.688-11.758 6.89-23.76 15.56-33.084 8.74-9.4 16.437-8.172 22.118 3.196.27-.15.67-.242.786-.474 1.195-2.39.343-7.447 3.256-6.84 2.932.612 1.036 5.008.56 7.82-5.684 33.63-11.338 67.266-17.006 100.898-.272 1.614-.246 2.808 1.808 3.378 17.718 4.92 35.095 10.975 53.755 12.128 17.32 1.07 28.908-7.788 39.13-19.974 1.722-2.05 3.66-6.32 6.07-4.44 3.01 2.35-.14 5.615-2.232 7.97-11.468 12.904-25.685 20.008-43.108 19.14-15.322-.765-30.112-4.64-44.654-9.394-11.404-3.727-11.472-3.787-15.1 7.474-5.68 17.64-14.28 33.266-29.75 44.337-3.55 2.54-7.526 4.083-11.963 5.568-7.754 2.59-19.973.84-23.848-.284zm24.896-66.643c-7.327.665-15.11 1.298-22.43 4.296-1.702.696-3.466 1.044-3.36 4.037.492 13.773-3.682 25.728-14.772 34.68-1.33 1.073-3.207 2.12-1.98 4.485 2.293 4.418 4.313 8.91 8.72 11.895 14.858 10.06 36.146 8.065 49.202-4.302 13.257-12.557 19.392-28.684 24.153-45.646.942-3.356-.822-4.534-3.586-5.163-11.682-2.657-23.623-3.128-35.947-4.284zm55.745-88.75c0-1.164.218-2.378-.036-3.483-1.368-5.936-.58-13.813-8.38-15.357-7.723-1.528-10.556 5.554-13.627 10.908-6.77 11.803-10.29 24.838-12.654 38.06-1.733 9.694-3.445 19.572-1.308 29.553.804 3.757 1.94 7.46 5.938 8.436 3.524.86 6.214-1.474 8.148-4.394 12.812-19.346 19.16-40.92 21.92-63.723zm-215.812 5.398c.496-2.706-.668-6.952-1.367-11.173-.827-4.99-2.58-10.237-7.73-11.995-5.658-1.93-10.59.904-14.87 4.833-4.15 3.81-6.835 8.544-9.107 13.56-7.946 17.537 3.312 41.214 21.413 45.675 3.468.855 4.454-.37 5.28-3.118 3.537-11.79 5.805-23.79 6.38-37.78zm-38.953 16.534c-2.806 13.584-3.486 26.22 1.236 38.557 2.98 7.79 10.324 10.56 16.932 6.585 5.86-3.527 8.23-9.785 11.175-15.52.612-1.192.4-2.33-1.19-2.623-14.82-2.717-22.19-13.374-28.154-26.998zm154.76 101.886c0 1.325-.032 2.652.012 3.976.03.953-.23 2.237.977 2.503.592.13 1.51-.526 2.07-1.05 8.337-7.776 12.42-17.335 11.96-28.78-.11-2.715-1.186-2.757-2.997-1.174-7.435 6.5-12.094 14.35-12.02 24.524zm94.755-87.952-.2-.388c-.09.112-.243.218-.254.337-.01.12.117.256.184.384l.27-.332z"/><path d="m.985 158.35c.542-2.497.688-3.255 1.035-4.756 4.096-17.7 11.313-33.416 28.035-42.797 25.004-14.027 52.24-3.367 56.05 26.615 1.098 8.657-1.303 16.357-4.252 24.095-.94 2.464-2.62 5.716-5.6 4.064-2.895-1.605-1.213-4.852.326-7.03 9.035-12.792 8.063-25.524-.246-38.097-9.47-14.33-28.917-17.36-44.688-7.18-15.911 10.274-22.453 26.086-25.645 43.75-2.412 13.358-1.273 26.512 4.016 39.076 7.456 17.71 20.228 23.136 36.657 24.343 3.328.244 3.992-1.523 4.392-4.517 3.166-23.692 19.988-42.467 42.74-47.832 3.53-.832 7.252-1.39 10.776-1.44 5.374-.077 8.698-1.765 10.847-6.92 6.473-15.532 12.018-31.3 14.696-47.986 1.06-6.61-2.918-11.775-4.9-17.415-6.938-19.76-13.815-39.49-16.154-60.465-.417-3.733.2-7.354 1.652-10.724 2.89-6.708 9.67-7.174 14.022-1.026 7.087 10.013 8.86 21.72 10.144 33.46 1.755 16.06 1.042 32.085-.1 48.21-.426 5.99 4.123 12.387 6.592 18.522 7.312 18.17 15.255 36.095 21.263 56.22 1.192-12.268 1.953-23.302 3.383-34.25 5.1-39.034 12.537-77.446 33.87-111.507 9.345-14.918 20.784-27.686 39.148-31.708.402-.088 2.472-.584 3.098-.676 2.344-.345 5.78-.75 10.97.25 3.08.593 4.48 1.167 6.405 2.126 4.177 2.08 8.395 4.05 11.7 7.487 1.506 1.564 2.655 3.328.907 5.22-1.802 1.948-3.236.203-4.644-.962-7.126-5.892-14.315-10.97-24.522-10.272-9.387.64-16.87 4.625-23.69 10.405-15.73 13.33-24.535 31.12-31.472 49.98-9.79 26.615-15.19 54.195-17.987 82.383-1.295 13.038-2.316 26.068-2.958 39.15-.34 6.925 2.574 13.383 2.12 20.256-.158 2.382.12 4.96-3.325 4.985-3.275.023-3.89-2.502-3.62-4.852 2.994-26.175-10.598-47.672-19.75-70.408-2.84-7.056-6.014-13.978-9.5-22.034-2.902 11.35-5.07 21.79-9.062 31.67-2.426 6.005-4.796 12.042-7.494 17.926-1.202 2.623-.966 3.938 1.926 4.655 20.7 5.135 31.28 20.37 36.438 39.283 8.624 31.618 5.864 62.583-9.72 91.8-6.77 12.688-16.193 23.13-30.9 26.317-11.857 2.57-23.513.47-34.19-5.535-2.19-1.232-3.348-1.405-5.55.2-7.622 5.543-16.436 7.035-25.633 5.9-5.37-.665-9.163-4.045-9.36-9.436-.185-5.075 3.737-7.86 8.315-9.36 9.507-3.12 17.7.355 25.263 5.605 3.11 2.158 4.75 1.705 6.88-1.08 7.736-10.113 12.026-21.72 15.182-33.864.65-2.5.516-3.785-2.83-3.843-26.773-.47-40.82-21.06-41.897-44.73-.24-5.313-.867-7.463-6.978-7.335-18.885.396-34.928-13.938-40.32-34.57-.712-2.727-1.43-4.327-2.138-8.504-1.048-6.158-.91-15.376.278-20.845zm124.707 64.392c2.09-.422 2.58 3.303 3.214 5.11 6.45 18.405-5.06 39.878-24.15 44.494-4.477 1.082-6.59 3.038-7.587 7.544-2.646 11.957-6.897 23.422-15.134 32.69-3.378 3.8-2.575 5.25 1.245 7 20.624 9.452 41.107 6.947 53.987-13.86 20.53-33.165 23.22-68.712 10.947-105.222-4.804-14.29-14.295-25.418-29.697-30.146-3.515-1.08-5.158-.588-7.088 2.725-13.067 22.43-28.48 42.308-55.752 48.445-1.777.4-1.78 1.766-1.75 3.11.12 5.47-.34 10.93 1.047 16.37 5.006 19.633 19.468 31.905 37.204 31.48 2.92-.07 4.314-.753 4.934-4.045 3.404-18.09 4.825-36.41 6.934-54.655.91-7.87 1.56-15.862 4.51-23.355.5-1.274 1-3.214 3.074-2.345 1.477.62 1.46 2.163 1.07 3.49-7.268 24.794-7.518 50.723-12.34 75.907-.63 3.294-.235 4.106 3.41 3.266 17.585-4.052 30.01-25.06 22.38-42.394-.677-1.542-2.542-5.19-.46-5.61zm-21.703-54.435c-3.05.48-6.52.84-9.9 1.59-23.18 5.142-35.967 23.848-39.944 46.367-.512 2.9.75 2.892 3.068 2.358 7.57-1.743 14.317-5.075 20.66-9.52 12.956-9.082 21.967-21.468 29.867-34.845.907-1.534 2.422-3.314 1.73-4.853-.884-1.97-3.39-1.097-5.48-1.097zm28.08-70.47c1.84-17.802 1.636-35.367-1.735-52.824-1.453-7.526-3.086-14.976-7.688-21.32-1.588-2.19-3.7-4.223-6.73-2.99-2.694 1.094-2.85 3.754-3.008 6.322-.598 9.74 1.427 19.066 3.977 28.39 3.973 14.525 9.477 28.485 15.184 42.422zm-78.479 210.643c-.004 0-1.816.146-3.597.464-4.665.833-7.715 3.784-7.818 8.344-.107 4.73 3.494 6.754 7.887 7.368 8.275 1.156 15.613-1.15 22.338-5.89 1.54-1.085 1.552-2.06.042-3.032-5.264-3.39-10.212-7.544-18.853-7.255zm547.364-71.037c-2.542 2.958-7.327 10.396-10.742 15.724-7.886 12.302-14.966 25.128-24.107 36.597-1.28 1.606-.696 2.955-.42 4.62 2.283 13.828 2.602 27.487-4.397 40.304-3.9 7.142-10.297 9.617-14.802 5.297-5.564-5.335-4.18-12.417-2.74-18.81 2.286-10.128 8.124-18.585 15.184-25.965 2.976-3.11 2.77-5.61 1.045-8.726-1.43-2.583-2.13-6.463-6.723-3.522-1.142.73-2.43-.82-2.834-2.155-.36-1.19.59-2.13 1.55-2.106 7.544.193 9.094-6.246 11.133-11.002 7.857-18.32 12.555-37.43 11.856-57.572-.145-4.158-.618-8.285-2.675-12.028-3.12-5.683-8.24-6.126-12.41-1.037-3.338 4.073-4.943 9.014-6.61 13.877-6.197 18.077-11.645 36.44-20.016 53.69-2.16 4.45-4.923 8.686-7.91 12.64-7.34 9.714-20.3 8.16-25.372-2.932-1.802-3.94-2.568-8.16-3.15-12.487-.552-4.095-.923-8.172-.766-13.685-3.77 8.307-6.935 15.355-10.17 22.37-1.982 4.302-4.89 7.954-8.54 10.926-4.327 3.52-8.07 2.387-10.172-2.76-1.638-4.012-1.048-8.193-1.235-12.328-.11-2.423.6-4.93-.955-8.263-3.943 6.348-6.393 12.883-10.902 18.066-.107.123-.136.312-.243.435-3.092 3.56-6.526 7.715-11.525 6.48-5.607-1.386-5.818-7.156-6.27-11.91-.89-9.344.903-18.58 2.28-27.72 2.395-15.87 5.71-31.604 8.642-47.395.15-.813.196-1.673.505-2.423.56-1.36 1.084-3.21 2.922-2.902 2.45.412 1.683 2.673 1.422 4.088-1.714 9.284-3.744 18.51-5.415 27.8-2.99 16.62-6.93 33.126-6.486 50.196.075 2.858-.18 6.134 2.99 7.304 3.085 1.137 5.316-1.267 7.24-3.37 6.76-7.39 10.526-16.42 14.093-25.605 6.97-17.953 8.254-37.173 12.67-55.69.49-2.054.23-5.102 3.127-4.72 3.396.447 1.57 3.237 1.24 5.184-3.738 22.033-7.602 44.047-11.118 66.116-.725 4.553-.158 9.312-.188 13.976-.012 1.85.83 3.263 2.455 4.028 1.954.92 3.052-.654 4.247-1.77 7.327-6.84 9.906-16.378 14.22-24.94 6.488-12.882 7.87-27.407 13.206-40.635 2.545-6.31 5.276-12.645 10.518-17.36 3.505-3.15 7.705-5.62 12.183-3.09 4.5 2.542 4.544 7.123 3.253 11.913-3.63 13.464-13.027 22.115-24.21 29.17-2.51 1.582-4.005 3.178-4.377 6.04-1.46 11.22-2.547 22.405 1.43 33.398 3.352 9.262 11.777 11.425 18.698 4.5 7.85-7.854 11.77-18.038 15.558-28.16 5.882-15.715 11.316-31.6 17.208-47.312 2.14-5.705 5.145-11.32 12.59-10.716 5.953.482 11.116 7.347 11.937 15.487 2.6 25.772-3.5 49.345-18.27 70.647-1.226 1.77 1.2 9.688 3.294 10.444 1.672.604 1.813-1.006 2.44-1.844 10.386-13.86 19.018-28.833 27.873-43.673 1.858-3.113 4.605-10.406 6.746-8.703 1.04.83.867 2.988-.002 4zm-38.01 70.16c0-3.462.02-6.295-.01-9.127-.012-.96.227-2.252-.99-2.508-.582-.122-1.58.55-2.024 1.14-7.46 9.866-14.772 19.784-14.036 33.165.207 3.764.053 7.88 4.498 8.957 4.468 1.082 6.27-2.814 8.14-5.95a12.12 12.12 0 0 0 1.323-3.218c1.898-7.578 3.39-15.15 3.1-22.46zm-35.98-107.715c.04-2.252-.25-4.425-2.472-5.575-2.435-1.26-4.51.022-6.305 1.493-1.258 1.03-2.335 2.356-3.263 3.707-6.01 8.75-9.14 18.662-11.45 28.885-.17.747-.366 1.875.02 2.284.945.996 1.764-.118 2.485-.666 6.91-5.246 13.024-11.233 17.163-18.977 1.872-3.5 3.783-7.015 3.822-11.152zm-60.276 54.73-.123-.427c-.122.037-.346.066-.35.11-.008.14.064.284.105.427l.368-.108z"/><path d="m307.982 153.478c6.07-.043 10.093-3.835 13.846-7.85 8.046-8.61 9.6-19.493 11.293-30.65 4.355-28.693 9.08-57.378 20.358-84.41 1.736-4.16 4.108-9.89 9.593-8.14 5.717 1.824 4.156 8.174 3.61 12.71-3.475 28.886-13.716 55.766-26.177 81.706-8.106 16.874-7.63 34.39-7.345 52.11.036 2.228.383 5.557 3.227 6.23 3.087.728 5.162-1.515 6.788-4.057 10.214-15.973 16.9-33.412 21.816-51.633 2.884-10.69 7.016-20.81 15.182-28.75 3.853-3.744 8.602-6.057 13.545-3.517 5.443 2.797 4.845 8.2 3.213 13.24-3.632 11.223-11.465 19.564-21.343 24.72-8.69 4.537-10.307 11.16-10.578 19.275-.19 5.635-.31 11.273.898 16.886 1.38 6.415 3.095 12.78 10.3 14.55 6.808 1.674 12.63-1.52 17.718-5.89 10.072-8.652 14.465-20.49 18.023-32.72 1.945-6.69 3.463-13.505 5.357-20.21.4-1.414.913-3.852 3.11-3.056 2.48.9.713 2.782.148 4.17-5.38 13.222-7.423 27.646-14.586 40.23-3.567 6.265-7.44 12.163-13.705 16.175-13.775 8.82-27.068 3.102-30.323-12.962-1.216-6.003-.842-12.066-1.09-19.71-4.816 10.08-7.43 19.416-12.856 27.392-.56.825-1.132 1.643-1.68 2.477-2.56 3.905-5.6 7.72-10.774 6.434-5.278-1.312-4.646-6.656-5.56-10.704-2.03-8.997-.522-18.073.17-28.344-3.33 3.953-5.82 6.917-8.318 9.872-3.012 3.562-7 6.114-11.352 6.793-4.446.693-5.885 3.36-7.648 6.656-2.65 4.96-5.404 9.846-10.455 13.062-11.306 7.196-22.143.874-25.41-14.758-1.268-6.063-.796-12.172-1.193-19.348-3.644 7.764-6.663 14.677-10.1 21.375-3.154 6.15-7.31 11.788-13.918 14.423-11.92 4.754-22.28-2.968-23.788-17.294-.574-5.444-1.567-10.856-.595-18.2-4.314 9.303-7.812 16.9-11.36 24.476-1.71 3.65-3.957 6.934-6.997 9.624-5.35 4.734-10.184 3.005-12.044-3.92-2.104-7.83-.534-15.61.315-23.248 2.012-18.092 4.957-36.082 8.765-53.898.654-3.06.074-8.72 4.685-7.783 4.036.82 1.285 5.855.786 8.584-4.106 22.476-8.468 44.908-11.442 67.57-.55 4.19-1.264 9.997 2.877 11.694 4.473 1.833 7-3.573 8.916-6.996 8.392-14.983 14.903-30.735 19.18-47.45 2.637-10.295 5.9-20.52 13.787-28.35 3.458-3.432 6.92-6.783 12.604-4.925 5.94 1.94 7.658 7.07 8.237 12.056 1.168 10.052-.45 19.88-5.128 29.044-1.052 2.062-2.24 4.037-4.916 2.83-2.726-1.227-1.276-3.44-.626-5.18 2.21-5.914 4.552-11.778 6.88-17.647 1.01-2.54 1.29-5.18 1.016-7.848-.514-5.027-1.96-10.116-7.33-11.37-4.67-1.09-7.797 2.55-10.257 6.36-8.62 13.346-12.19 28.3-13.247 43.824-.537 7.895-1.195 15.99.953 23.846 1.686 6.168 4.248 12.017 11.43 12.976 6.35.848 11.41-2.7 14.773-7.636 8.872-13.025 14.555-27.588 18.668-42.71 3.465-12.733 6.226-25.756 17.845-34.082 13.704-9.82 25.78-4.277 28.245 12.418 2.297 15.545-.57 30.355-5.082 45.057-.435 1.416-.674 2.893-1.003 4.342l-.192.456.26-.395zm1.814-38.504c0-3.827.217-7.67-.08-11.475-.18-2.275-1.04-4.53-1.81-6.716-2.948-8.376-10.088-10.377-17.448-5.41-6.24 4.213-9.968 10.117-12.834 16.762-7.54 17.482 3.213 40.918 20.624 45.275 3.27.82 4.967.466 6.047-3.242 3.357-11.52 6.236-23.065 5.5-35.194zm26.738 2.345c.404.67.888.686 1.51.166 3.72-8.85 7.673-17.61 11.105-26.572 7.422-19.382 14.418-38.914 14.77-60.04.036-2.144 1.154-5.24-1.863-6.06-3.16-.86-3.544 2.482-4.433 4.388-7.785 16.705-10.785 34.777-14.59 52.587-2.515 11.768-4.357 23.68-6.5 35.53zm-64.99 11.697c-.595 3.64-1.22 5.906-1.296 8.19-.345 10.586-1.8 21.355 3.275 31.326 4.835 9.5 14.318 10.39 20.698 1.95 2.392-3.16 4.203-6.76 6.298-10.148 1.442-2.332 1.48-3.573-1.854-4.236-6.712-1.337-12.02-5.168-16.814-10.077-4.495-4.605-7.236-10.137-10.306-17.006zm122.386-32.752c.148-6.886-3.128-8.928-8.236-6.213-2.416 1.285-4.23 3.155-5.74 5.383-5.76 8.505-8.924 18.08-11.457 27.906-.19.742-.408 1.843-.032 2.295.92 1.108 1.704-.096 2.48-.56 6.51-3.878 11.73-9.176 16.276-15.14 3.328-4.362 6.312-8.957 6.71-13.67zm-190.566-25.964c-1.863-.407-2.54-1.663-2.27-3.325.284-1.744 1.243-3.365 3.207-3.062 1.483.228 2.675 1.582 2.41 3.297-.28 1.793-1.526 2.863-3.346 3.09z"/><path d="m317.073 177.074c-1.938-.343-2.106-1.786-2.1-3.312.007-1.613.515-3.045 2.346-3.12 1.8-.076 2.586 1.19 2.547 2.876-.04 1.834-1.09 2.97-2.794 3.556zm105.615 71.404-.27.334c-.067-.13-.195-.263-.184-.384.01-.12.163-.226.253-.337l.2.388zm44 6.142a50.74 50.74 0 0 1 -.367.106c-.04-.143-.113-.288-.103-.427.003-.045.226-.074.35-.11l.12.43zm-158.706-101.142-.256.393.192-.455.064.063z"/></g></svg>